<svg id="Layer_1" data-name="Layer 1" xmlns="http://www.w3.org/2000/svg" viewBox="0 0 1194.45 625.46"><defs><style>.cls-1{fill:#00aed6;}.cls-2{fill:#efb206;}</style></defs><path class="cls-1" d="M341.15,0C156.31,0,17.68,140,17.68,312.73v1.72A308.94,308.94,0,0,0,57.43,467.17L0,613.43s331.65,12,339.43,12c184.84,0,323.47-140,323.47-312.73V311C662.9,138.32,526,0,341.15,0Z"/><path class="cls-2" d="M855.61.36C681.91,7.77,555,142.38,555,312.73v1.72c0,179.56,137.77,311,308.91,311,132.64,0,208.8-57.56,265.27-135.74l-124.93-89.36c-35.94,43.82-72.74,73-135.2,73-83.87,0-142.91-70.45-142.91-160.66V311c0-87.63,59-158.94,142.91-158.94,57.33,0,122.93,28,140.29,104.06l124-88.37L1194.45,12Z"/></svg>