<svg id="Layer_1" data-name="Layer 1" xmlns="http://www.w3.org/2000/svg" viewBox="0 0 1918.3 322.36"><defs><style>.cls-1{fill:#00aed6;}.cls-2{fill:#efb206;}</style></defs><polygon points="164.07 126.2 90.41 6.2 0 6.2 0 316.16 83.8 316.16 83.8 139.04 162.3 259.48 164.07 259.48 243.01 138.16 243.01 316.16 328.13 316.16 328.13 6.2 237.72 6.2 164.07 126.2"/><path class="cls-1" d="M551.73,0C456.47,0,385,72.18,385,161.18v.89a159.15,159.15,0,0,0,20.49,78.71l-29.6,75.38s170.93,6.2,174.94,6.2c95.27,0,166.71-72.17,166.71-161.18v-.88C717.56,71.29,647,0,551.73,0Z"/><polygon points="1333.94 6.2 1232.51 6.2 1126.21 131.96 1126.21 6.2 1040.65 6.2 1040.65 316.16 1126.21 316.16 1126.21 236.02 1157.53 201.03 1235.15 316.16 1337.91 316.16 1217.07 139.48 1333.94 6.2"/><rect x="1330.85" y="140.81" width="144.66" height="58.26"/><rect x="1522.25" y="6.2" width="86" height="309.96"/><polygon points="1647.5 6.2 1647.5 81.48 1740.12 81.48 1740.12 316.16 1825.68 316.16 1825.68 81.48 1918.3 81.48 1918.3 6.2 1647.5 6.2"/><path class="cls-2" d="M816.89.18c-89.53,3.83-154.95,73.2-154.95,161v.89c0,92.54,71,160.29,159.21,160.29,68.37,0,107.62-29.67,136.73-70l-64.39-46.05C875,228.93,856,244,823.8,244c-43.22,0-73.65-36.31-73.65-82.81v-.88c0-45.17,30.43-81.92,73.65-81.92,29.55,0,63.36,14.41,72.31,53.63L960,86.46,991.52,6.2Z"/></svg>